<svg width="198" height="102" viewBox="0 0 198 102" fill="none" xmlns="http://www.w3.org/2000/svg">
<path d="M29.2778 64L41.5178 35.68H46.6778L58.9978 64H51.9578L49.5178 58H38.5178L36.1578 64H29.2778ZM47.3978 52.72L43.9178 43.92L40.4778 52.72H47.3978ZM59.3722 64V44.56H65.3722V47.68H65.4522C66.7322 45.32 68.4122 44.08 71.0522 44.08C71.7322 44.08 72.4922 44.12 73.0522 44.28V49.76C72.2122 49.52 71.3722 49.36 70.4922 49.36C65.9322 49.36 65.3722 52 65.3722 55.88V64H59.3722ZM78.7473 64L71.6273 44.56H78.0273L81.9873 56.76H82.0673L85.3873 44.56H91.9473L95.5473 56.76H95.6273L99.2673 44.56H105.347L98.4273 64H92.5073L88.4673 51.08H88.3873L84.7873 64H78.7473ZM105.634 64V44.56H111.634V64H105.634ZM105.154 38.44C105.154 36.52 106.714 34.96 108.634 34.96C110.554 34.96 112.114 36.52 112.114 38.44C112.114 40.36 110.554 41.92 108.634 41.92C106.714 41.92 105.154 40.36 105.154 38.44ZM114.31 64V33.76H120.31V64H114.31ZM143.307 33.76V64H137.787V61.44H137.707C136.787 62.84 134.467 64.48 131.747 64.48C125.987 64.48 122.187 60.32 122.187 54.44C122.187 49.04 125.547 44.08 131.067 44.08C133.547 44.08 135.867 44.76 137.227 46.64H137.307V33.76H143.307ZM137.787 54.28C137.787 51.36 135.987 49.36 132.987 49.36C129.987 49.36 128.187 51.36 128.187 54.28C128.187 57.2 129.987 59.2 132.987 59.2C135.987 59.2 137.787 57.2 137.787 54.28ZM145.668 54.28C145.668 48.08 150.468 44.08 156.468 44.08C162.468 44.08 167.268 48.08 167.268 54.28C167.268 60.48 162.468 64.48 156.468 64.48C150.468 64.48 145.668 60.48 145.668 54.28ZM151.668 54.28C151.668 57.2 153.468 59.2 156.468 59.2C159.468 59.2 161.268 57.2 161.268 54.28C161.268 51.36 159.468 49.36 156.468 49.36C153.468 49.36 151.668 51.36 151.668 54.28Z" fill="#37313C"/>
<path d="M47.2184 89.576L48.2264 88.904C48.7864 89.848 49.6984 90.328 50.8184 90.328C52.2424 90.328 53.3624 89.464 53.3624 88.104C53.3624 84.936 47.5224 86.792 47.5224 82.488C47.5224 80.472 49.2504 79.384 51.1544 79.384C52.3864 79.384 53.4744 79.8 54.2424 80.808L53.3304 81.464C52.8024 80.728 52.0984 80.344 51.1224 80.344C49.7624 80.344 48.5784 81.048 48.5784 82.488C48.5784 85.896 54.4184 83.848 54.4184 88.104C54.4184 90.152 52.7384 91.288 50.8984 91.288C49.4104 91.288 48.0984 90.808 47.2184 89.576ZM58.8194 85.336C58.8194 81.88 61.2194 79.384 64.6754 79.384C68.1314 79.384 70.5314 81.88 70.5314 85.336C70.5314 88.792 68.1314 91.288 64.6754 91.288C61.2194 91.288 58.8194 88.792 58.8194 85.336ZM59.8754 85.336C59.8754 88.152 61.7154 90.328 64.6754 90.328C67.6354 90.328 69.4754 88.152 69.4754 85.336C69.4754 82.52 67.6354 80.344 64.6754 80.344C61.7154 80.344 59.8754 82.52 59.8754 85.336ZM75.6415 91V79.672H82.4255V80.632H76.6975V84.664H82.0255V85.624H76.6975V91H75.6415ZM89.7866 91V80.632H85.9146V79.672H94.7146V80.632H90.8426V91H89.7866ZM101.028 91L97.7324 79.672H98.8204L101.636 89.704H101.668L104.532 79.672H105.876L108.74 89.704H108.772L111.588 79.672H112.676L109.38 91H108.084L105.22 80.92H105.188L102.324 91H101.028ZM115.303 91L120.247 79.672H121.335L126.103 91H124.919L123.687 87.992H117.687L116.407 91H115.303ZM123.303 87.032L120.743 80.824L118.103 87.032H123.303ZM131.526 80.632V84.664H133.766C135.99 84.664 136.422 83.432 136.422 82.648C136.422 81.864 135.99 80.632 133.766 80.632H131.526ZM130.47 91V79.672H133.446C134.342 79.672 137.478 79.672 137.478 82.648C137.478 84.808 135.83 85.4 134.582 85.56L137.878 91H136.678L133.494 85.624H131.526V91H130.47ZM142.697 91V79.672H149.625V80.632H143.753V84.664H149.257V85.624H143.753V90.04H149.881V91H142.697Z" fill="#37313C"/>
<path d="M89.048 20V8.672H92.312C94.04 8.672 95.96 9.104 95.96 11.664C95.96 12.816 95.272 13.744 93.928 14.016V14.048C95.416 14.16 96.456 15.248 96.456 16.832C96.456 19.44 94.2 20 92.664 20H89.048ZM90.104 9.632V13.568H92.296C94.488 13.568 94.904 12.368 94.904 11.664C94.904 10.08 93.784 9.632 92.44 9.632H90.104ZM90.104 14.528V19.04H92.52C95 19.04 95.4 17.664 95.4 16.864C95.4 15.184 94.024 14.528 92.68 14.528H90.104ZM104.381 20V15.12L100.221 8.672H101.485L104.909 14.048L108.413 8.672H109.597L105.437 15.12V20H104.381Z" fill="#37313C"/>
</svg>
